%TF.GenerationSoftware,KiCad,Pcbnew,9.0.7*%
%TF.CreationDate,2026-03-04T11:38:04-05:00*%
%TF.ProjectId,LNA,4c4e412e-6b69-4636-9164-5f7063625858,rev?*%
%TF.SameCoordinates,Original*%
%TF.FileFunction,Legend,Top*%
%TF.FilePolarity,Positive*%
%FSLAX46Y46*%
G04 Gerber Fmt 4.6, Leading zero omitted, Abs format (unit mm)*
G04 Created by KiCad (PCBNEW 9.0.7) date 2026-03-04 11:38:04*
%MOMM*%
%LPD*%
G01*
G04 APERTURE LIST*
%ADD10C,0.150000*%
%ADD11C,0.120000*%
G04 APERTURE END LIST*
D10*
X147945833Y-95129580D02*
X147898214Y-95177200D01*
X147898214Y-95177200D02*
X147755357Y-95224819D01*
X147755357Y-95224819D02*
X147660119Y-95224819D01*
X147660119Y-95224819D02*
X147517262Y-95177200D01*
X147517262Y-95177200D02*
X147422024Y-95081961D01*
X147422024Y-95081961D02*
X147374405Y-94986723D01*
X147374405Y-94986723D02*
X147326786Y-94796247D01*
X147326786Y-94796247D02*
X147326786Y-94653390D01*
X147326786Y-94653390D02*
X147374405Y-94462914D01*
X147374405Y-94462914D02*
X147422024Y-94367676D01*
X147422024Y-94367676D02*
X147517262Y-94272438D01*
X147517262Y-94272438D02*
X147660119Y-94224819D01*
X147660119Y-94224819D02*
X147755357Y-94224819D01*
X147755357Y-94224819D02*
X147898214Y-94272438D01*
X147898214Y-94272438D02*
X147945833Y-94320057D01*
X148898214Y-95224819D02*
X148326786Y-95224819D01*
X148612500Y-95224819D02*
X148612500Y-94224819D01*
X148612500Y-94224819D02*
X148517262Y-94367676D01*
X148517262Y-94367676D02*
X148422024Y-94462914D01*
X148422024Y-94462914D02*
X148326786Y-94510533D01*
X147930833Y-92114580D02*
X147883214Y-92162200D01*
X147883214Y-92162200D02*
X147740357Y-92209819D01*
X147740357Y-92209819D02*
X147645119Y-92209819D01*
X147645119Y-92209819D02*
X147502262Y-92162200D01*
X147502262Y-92162200D02*
X147407024Y-92066961D01*
X147407024Y-92066961D02*
X147359405Y-91971723D01*
X147359405Y-91971723D02*
X147311786Y-91781247D01*
X147311786Y-91781247D02*
X147311786Y-91638390D01*
X147311786Y-91638390D02*
X147359405Y-91447914D01*
X147359405Y-91447914D02*
X147407024Y-91352676D01*
X147407024Y-91352676D02*
X147502262Y-91257438D01*
X147502262Y-91257438D02*
X147645119Y-91209819D01*
X147645119Y-91209819D02*
X147740357Y-91209819D01*
X147740357Y-91209819D02*
X147883214Y-91257438D01*
X147883214Y-91257438D02*
X147930833Y-91305057D01*
X148311786Y-91305057D02*
X148359405Y-91257438D01*
X148359405Y-91257438D02*
X148454643Y-91209819D01*
X148454643Y-91209819D02*
X148692738Y-91209819D01*
X148692738Y-91209819D02*
X148787976Y-91257438D01*
X148787976Y-91257438D02*
X148835595Y-91305057D01*
X148835595Y-91305057D02*
X148883214Y-91400295D01*
X148883214Y-91400295D02*
X148883214Y-91495533D01*
X148883214Y-91495533D02*
X148835595Y-91638390D01*
X148835595Y-91638390D02*
X148264167Y-92209819D01*
X148264167Y-92209819D02*
X148883214Y-92209819D01*
X148533333Y-87490830D02*
X148485714Y-87538450D01*
X148485714Y-87538450D02*
X148342857Y-87586069D01*
X148342857Y-87586069D02*
X148247619Y-87586069D01*
X148247619Y-87586069D02*
X148104762Y-87538450D01*
X148104762Y-87538450D02*
X148009524Y-87443211D01*
X148009524Y-87443211D02*
X147961905Y-87347973D01*
X147961905Y-87347973D02*
X147914286Y-87157497D01*
X147914286Y-87157497D02*
X147914286Y-87014640D01*
X147914286Y-87014640D02*
X147961905Y-86824164D01*
X147961905Y-86824164D02*
X148009524Y-86728926D01*
X148009524Y-86728926D02*
X148104762Y-86633688D01*
X148104762Y-86633688D02*
X148247619Y-86586069D01*
X148247619Y-86586069D02*
X148342857Y-86586069D01*
X148342857Y-86586069D02*
X148485714Y-86633688D01*
X148485714Y-86633688D02*
X148533333Y-86681307D01*
X148866667Y-86586069D02*
X149485714Y-86586069D01*
X149485714Y-86586069D02*
X149152381Y-86967021D01*
X149152381Y-86967021D02*
X149295238Y-86967021D01*
X149295238Y-86967021D02*
X149390476Y-87014640D01*
X149390476Y-87014640D02*
X149438095Y-87062259D01*
X149438095Y-87062259D02*
X149485714Y-87157497D01*
X149485714Y-87157497D02*
X149485714Y-87395592D01*
X149485714Y-87395592D02*
X149438095Y-87490830D01*
X149438095Y-87490830D02*
X149390476Y-87538450D01*
X149390476Y-87538450D02*
X149295238Y-87586069D01*
X149295238Y-87586069D02*
X149009524Y-87586069D01*
X149009524Y-87586069D02*
X148914286Y-87538450D01*
X148914286Y-87538450D02*
X148866667Y-87490830D01*
X150120833Y-101179580D02*
X150073214Y-101227200D01*
X150073214Y-101227200D02*
X149930357Y-101274819D01*
X149930357Y-101274819D02*
X149835119Y-101274819D01*
X149835119Y-101274819D02*
X149692262Y-101227200D01*
X149692262Y-101227200D02*
X149597024Y-101131961D01*
X149597024Y-101131961D02*
X149549405Y-101036723D01*
X149549405Y-101036723D02*
X149501786Y-100846247D01*
X149501786Y-100846247D02*
X149501786Y-100703390D01*
X149501786Y-100703390D02*
X149549405Y-100512914D01*
X149549405Y-100512914D02*
X149597024Y-100417676D01*
X149597024Y-100417676D02*
X149692262Y-100322438D01*
X149692262Y-100322438D02*
X149835119Y-100274819D01*
X149835119Y-100274819D02*
X149930357Y-100274819D01*
X149930357Y-100274819D02*
X150073214Y-100322438D01*
X150073214Y-100322438D02*
X150120833Y-100370057D01*
X150977976Y-100608152D02*
X150977976Y-101274819D01*
X150739881Y-100227200D02*
X150501786Y-100941485D01*
X150501786Y-100941485D02*
X151120833Y-100941485D01*
X138945833Y-101079580D02*
X138898214Y-101127200D01*
X138898214Y-101127200D02*
X138755357Y-101174819D01*
X138755357Y-101174819D02*
X138660119Y-101174819D01*
X138660119Y-101174819D02*
X138517262Y-101127200D01*
X138517262Y-101127200D02*
X138422024Y-101031961D01*
X138422024Y-101031961D02*
X138374405Y-100936723D01*
X138374405Y-100936723D02*
X138326786Y-100746247D01*
X138326786Y-100746247D02*
X138326786Y-100603390D01*
X138326786Y-100603390D02*
X138374405Y-100412914D01*
X138374405Y-100412914D02*
X138422024Y-100317676D01*
X138422024Y-100317676D02*
X138517262Y-100222438D01*
X138517262Y-100222438D02*
X138660119Y-100174819D01*
X138660119Y-100174819D02*
X138755357Y-100174819D01*
X138755357Y-100174819D02*
X138898214Y-100222438D01*
X138898214Y-100222438D02*
X138945833Y-100270057D01*
X139850595Y-100174819D02*
X139374405Y-100174819D01*
X139374405Y-100174819D02*
X139326786Y-100651009D01*
X139326786Y-100651009D02*
X139374405Y-100603390D01*
X139374405Y-100603390D02*
X139469643Y-100555771D01*
X139469643Y-100555771D02*
X139707738Y-100555771D01*
X139707738Y-100555771D02*
X139802976Y-100603390D01*
X139802976Y-100603390D02*
X139850595Y-100651009D01*
X139850595Y-100651009D02*
X139898214Y-100746247D01*
X139898214Y-100746247D02*
X139898214Y-100984342D01*
X139898214Y-100984342D02*
X139850595Y-101079580D01*
X139850595Y-101079580D02*
X139802976Y-101127200D01*
X139802976Y-101127200D02*
X139707738Y-101174819D01*
X139707738Y-101174819D02*
X139469643Y-101174819D01*
X139469643Y-101174819D02*
X139374405Y-101127200D01*
X139374405Y-101127200D02*
X139326786Y-101079580D01*
X133824819Y-87203333D02*
X134539104Y-87203333D01*
X134539104Y-87203333D02*
X134681961Y-87250952D01*
X134681961Y-87250952D02*
X134777200Y-87346190D01*
X134777200Y-87346190D02*
X134824819Y-87489047D01*
X134824819Y-87489047D02*
X134824819Y-87584285D01*
X133824819Y-86822380D02*
X133824819Y-86203333D01*
X133824819Y-86203333D02*
X134205771Y-86536666D01*
X134205771Y-86536666D02*
X134205771Y-86393809D01*
X134205771Y-86393809D02*
X134253390Y-86298571D01*
X134253390Y-86298571D02*
X134301009Y-86250952D01*
X134301009Y-86250952D02*
X134396247Y-86203333D01*
X134396247Y-86203333D02*
X134634342Y-86203333D01*
X134634342Y-86203333D02*
X134729580Y-86250952D01*
X134729580Y-86250952D02*
X134777200Y-86298571D01*
X134777200Y-86298571D02*
X134824819Y-86393809D01*
X134824819Y-86393809D02*
X134824819Y-86679523D01*
X134824819Y-86679523D02*
X134777200Y-86774761D01*
X134777200Y-86774761D02*
X134729580Y-86822380D01*
X149134819Y-100291666D02*
X149134819Y-100767856D01*
X149134819Y-100767856D02*
X148134819Y-100767856D01*
X149134819Y-99434523D02*
X149134819Y-100005951D01*
X149134819Y-99720237D02*
X148134819Y-99720237D01*
X148134819Y-99720237D02*
X148277676Y-99815475D01*
X148277676Y-99815475D02*
X148372914Y-99910713D01*
X148372914Y-99910713D02*
X148420533Y-100005951D01*
X146054819Y-103911904D02*
X146864342Y-103911904D01*
X146864342Y-103911904D02*
X146959580Y-103864285D01*
X146959580Y-103864285D02*
X147007200Y-103816666D01*
X147007200Y-103816666D02*
X147054819Y-103721428D01*
X147054819Y-103721428D02*
X147054819Y-103530952D01*
X147054819Y-103530952D02*
X147007200Y-103435714D01*
X147007200Y-103435714D02*
X146959580Y-103388095D01*
X146959580Y-103388095D02*
X146864342Y-103340476D01*
X146864342Y-103340476D02*
X146054819Y-103340476D01*
X147054819Y-102340476D02*
X147054819Y-102911904D01*
X147054819Y-102626190D02*
X146054819Y-102626190D01*
X146054819Y-102626190D02*
X146197676Y-102721428D01*
X146197676Y-102721428D02*
X146292914Y-102816666D01*
X146292914Y-102816666D02*
X146340533Y-102911904D01*
X131171666Y-107704819D02*
X131171666Y-108419104D01*
X131171666Y-108419104D02*
X131124047Y-108561961D01*
X131124047Y-108561961D02*
X131028809Y-108657200D01*
X131028809Y-108657200D02*
X130885952Y-108704819D01*
X130885952Y-108704819D02*
X130790714Y-108704819D01*
X131600238Y-107800057D02*
X131647857Y-107752438D01*
X131647857Y-107752438D02*
X131743095Y-107704819D01*
X131743095Y-107704819D02*
X131981190Y-107704819D01*
X131981190Y-107704819D02*
X132076428Y-107752438D01*
X132076428Y-107752438D02*
X132124047Y-107800057D01*
X132124047Y-107800057D02*
X132171666Y-107895295D01*
X132171666Y-107895295D02*
X132171666Y-107990533D01*
X132171666Y-107990533D02*
X132124047Y-108133390D01*
X132124047Y-108133390D02*
X131552619Y-108704819D01*
X131552619Y-108704819D02*
X132171666Y-108704819D01*
X156286666Y-95554819D02*
X156286666Y-96269104D01*
X156286666Y-96269104D02*
X156239047Y-96411961D01*
X156239047Y-96411961D02*
X156143809Y-96507200D01*
X156143809Y-96507200D02*
X156000952Y-96554819D01*
X156000952Y-96554819D02*
X155905714Y-96554819D01*
X157286666Y-96554819D02*
X156715238Y-96554819D01*
X157000952Y-96554819D02*
X157000952Y-95554819D01*
X157000952Y-95554819D02*
X156905714Y-95697676D01*
X156905714Y-95697676D02*
X156810476Y-95792914D01*
X156810476Y-95792914D02*
X156715238Y-95840533D01*
D11*
%TO.C,C1*%
X147966233Y-96710000D02*
X148258767Y-96710000D01*
X147966233Y-95690000D02*
X148258767Y-95690000D01*
%TO.C,C2*%
X147951233Y-93695000D02*
X148243767Y-93695000D01*
X147951233Y-92675000D02*
X148243767Y-92675000D01*
%TO.C,C3*%
X147988748Y-89891250D02*
X149411252Y-89891250D01*
X147988748Y-88071250D02*
X149411252Y-88071250D01*
%TO.C,C4*%
X150141233Y-102760000D02*
X150433767Y-102760000D01*
X150141233Y-101740000D02*
X150433767Y-101740000D01*
%TO.C,C5*%
X138966233Y-102660000D02*
X139258767Y-102660000D01*
X138966233Y-101640000D02*
X139258767Y-101640000D01*
%TO.C,J3*%
X144280000Y-87260000D02*
X144280000Y-90940000D01*
X144280000Y-87260000D02*
X144020000Y-87260000D01*
X144280000Y-86490000D02*
X144280000Y-82810000D01*
X144280000Y-82810000D02*
X139450000Y-82810000D01*
X144020000Y-87260000D02*
X144020000Y-86490000D01*
X144020000Y-86490000D02*
X144280000Y-86490000D01*
X139450000Y-90940000D02*
X144280000Y-90940000D01*
X137540000Y-90940000D02*
X139450000Y-90940000D01*
X137540000Y-90940000D02*
X137540000Y-82810000D01*
X137540000Y-89670000D02*
X136150000Y-89670000D01*
X137540000Y-84080000D02*
X136150000Y-84080000D01*
X137540000Y-82810000D02*
X139450000Y-82810000D01*
X137290000Y-89670000D02*
X137290000Y-84080000D01*
X137250000Y-91280000D02*
X139450000Y-91280000D01*
X137250000Y-89980000D02*
X137250000Y-91280000D01*
X136400000Y-89670000D02*
X136400000Y-84080000D01*
X136150000Y-89670000D02*
X136150000Y-84080000D01*
%TO.C,L1*%
X147760000Y-99953733D02*
X147760000Y-100296267D01*
X146740000Y-99953733D02*
X146740000Y-100296267D01*
%TO.C,U1*%
X145980000Y-102300000D02*
X145790000Y-102160000D01*
X145980000Y-102020000D01*
X145980000Y-102300000D01*
G36*
X145980000Y-102300000D02*
G01*
X145790000Y-102160000D01*
X145980000Y-102020000D01*
X145980000Y-102300000D01*
G37*
X145785000Y-102454432D02*
X145785000Y-104260000D01*
X143515000Y-104260000D02*
X143515000Y-102040000D01*
%TO.C,J2*%
X133200000Y-102150000D02*
X133700000Y-102400000D01*
X133700000Y-101900000D02*
X133200000Y-102150000D01*
X133700000Y-102400000D02*
X133700000Y-101900000D01*
%TO.C,J1*%
X154425000Y-101950000D02*
X154425000Y-102450000D01*
X154425000Y-102450000D02*
X154925000Y-102200000D01*
X154925000Y-102200000D02*
X154425000Y-101950000D01*
%TD*%
M02*
