%TF.GenerationSoftware,KiCad,Pcbnew,9.0.7*%
%TF.CreationDate,2026-03-04T11:38:04-05:00*%
%TF.ProjectId,LNA,4c4e412e-6b69-4636-9164-5f7063625858,rev?*%
%TF.SameCoordinates,Original*%
%TF.FileFunction,Copper,L2,Bot*%
%TF.FilePolarity,Positive*%
%FSLAX46Y46*%
G04 Gerber Fmt 4.6, Leading zero omitted, Abs format (unit mm)*
G04 Created by KiCad (PCBNEW 9.0.7) date 2026-03-04 11:38:04*
%MOMM*%
%LPD*%
G01*
G04 APERTURE LIST*
G04 Aperture macros list*
%AMRoundRect*
0 Rectangle with rounded corners*
0 $1 Rounding radius*
0 $2 $3 $4 $5 $6 $7 $8 $9 X,Y pos of 4 corners*
0 Add a 4 corners polygon primitive as box body*
4,1,4,$2,$3,$4,$5,$6,$7,$8,$9,$2,$3,0*
0 Add four circle primitives for the rounded corners*
1,1,$1+$1,$2,$3*
1,1,$1+$1,$4,$5*
1,1,$1+$1,$6,$7*
1,1,$1+$1,$8,$9*
0 Add four rect primitives between the rounded corners*
20,1,$1+$1,$2,$3,$4,$5,0*
20,1,$1+$1,$4,$5,$6,$7,0*
20,1,$1+$1,$6,$7,$8,$9,0*
20,1,$1+$1,$8,$9,$2,$3,0*%
G04 Aperture macros list end*
%TA.AperFunction,EtchedComponent*%
%ADD10C,0.460000*%
%TD*%
%TA.AperFunction,ComponentPad*%
%ADD11C,3.000000*%
%TD*%
%TA.AperFunction,ComponentPad*%
%ADD12R,3.000000X3.000000*%
%TD*%
%TA.AperFunction,SMDPad,CuDef*%
%ADD13RoundRect,0.250000X1.595000X1.082500X-1.595000X1.082500X-1.595000X-1.082500X1.595000X-1.082500X0*%
%TD*%
%TA.AperFunction,ComponentPad*%
%ADD14C,0.970000*%
%TD*%
%TA.AperFunction,SMDPad,CuDef*%
%ADD15RoundRect,0.250000X-1.595000X-1.082500X1.595000X-1.082500X1.595000X1.082500X-1.595000X1.082500X0*%
%TD*%
%TA.AperFunction,ViaPad*%
%ADD16C,0.600000*%
%TD*%
G04 APERTURE END LIST*
D10*
%TO.C,J2*%
X131050000Y-98657500D02*
X133785000Y-98657500D01*
X131050000Y-105642500D02*
X133785000Y-105642500D01*
%TO.C,J1*%
X157075000Y-98707500D02*
X154340000Y-98707500D01*
X157075000Y-105692500D02*
X154340000Y-105692500D01*
%TD*%
D11*
%TO.P,J3,2,Pin_2*%
%TO.N,GND*%
X139450000Y-84900000D03*
D12*
%TO.P,J3,1,Pin_1*%
%TO.N,/RF_filter_0.45mm*%
X139450000Y-88780000D03*
%TD*%
D13*
%TO.P,J2,2,Ext*%
%TO.N,GND*%
X131050000Y-98657500D03*
X131050000Y-105642500D03*
D14*
X133785000Y-98657500D03*
X133785000Y-105642500D03*
%TD*%
%TO.P,J1,2,Ext*%
%TO.N,GND*%
X154340000Y-98707500D03*
X154340000Y-105692500D03*
D15*
X157075000Y-98707500D03*
X157075000Y-105692500D03*
%TD*%
D16*
%TO.N,GND*%
X150900000Y-85050000D03*
X155550000Y-88900000D03*
X155287500Y-96450000D03*
X152230000Y-92550000D03*
X155500000Y-85050000D03*
X152280000Y-96400000D03*
X157287500Y-96450000D03*
X155287500Y-107950000D03*
X132787500Y-96400000D03*
X130787500Y-96400000D03*
X157287500Y-107950000D03*
X132887500Y-107800000D03*
X130887500Y-107800000D03*
%TD*%
%TA.AperFunction,Conductor*%
%TO.N,GND*%
G36*
X158342539Y-81920185D02*
G01*
X158388294Y-81972989D01*
X158399500Y-82024500D01*
X158399500Y-96751000D01*
X158379815Y-96818039D01*
X158327011Y-96863794D01*
X158275500Y-96875000D01*
X157325000Y-96875000D01*
X157325000Y-97861322D01*
X157305315Y-97928361D01*
X157252511Y-97974116D01*
X157183353Y-97984060D01*
X157176818Y-97982941D01*
X157146948Y-97977000D01*
X156949000Y-97977000D01*
X156881961Y-97957315D01*
X156836206Y-97904511D01*
X156825000Y-97853000D01*
X156825000Y-96875000D01*
X155430028Y-96875000D01*
X155430012Y-96875001D01*
X155327302Y-96885494D01*
X155160880Y-96940641D01*
X155160875Y-96940643D01*
X155011654Y-97032684D01*
X154887684Y-97156654D01*
X154795643Y-97305875D01*
X154795641Y-97305880D01*
X154740494Y-97472302D01*
X154740493Y-97472309D01*
X154730000Y-97575013D01*
X154730000Y-97629683D01*
X154710315Y-97696722D01*
X154657511Y-97742477D01*
X154588353Y-97752421D01*
X154581809Y-97751301D01*
X154437013Y-97722500D01*
X154242983Y-97722500D01*
X154052693Y-97760351D01*
X154052685Y-97760353D01*
X153873428Y-97834603D01*
X153873426Y-97834604D01*
X153841794Y-97855740D01*
X153918438Y-97932384D01*
X153951923Y-97993707D01*
X153946939Y-98063399D01*
X153905067Y-98119332D01*
X153899649Y-98123166D01*
X153874336Y-98140080D01*
X153874329Y-98140085D01*
X153772585Y-98241829D01*
X153772580Y-98241836D01*
X153755666Y-98267149D01*
X153702053Y-98311954D01*
X153632728Y-98320660D01*
X153569701Y-98290504D01*
X153564884Y-98285938D01*
X153488240Y-98209294D01*
X153467104Y-98240926D01*
X153467103Y-98240928D01*
X153392853Y-98420185D01*
X153392851Y-98420193D01*
X153355000Y-98610481D01*
X153355000Y-98804518D01*
X153392851Y-98994806D01*
X153392853Y-98994814D01*
X153467102Y-99174068D01*
X153467106Y-99174075D01*
X153488239Y-99205703D01*
X153564883Y-99129061D01*
X153626206Y-99095576D01*
X153695898Y-99100560D01*
X153751832Y-99142431D01*
X153755667Y-99147851D01*
X153772582Y-99173166D01*
X153772585Y-99173170D01*
X153874329Y-99274914D01*
X153899648Y-99291832D01*
X153944452Y-99345445D01*
X153953159Y-99414770D01*
X153923004Y-99477797D01*
X153918438Y-99482615D01*
X153841794Y-99559259D01*
X153873431Y-99580398D01*
X154052681Y-99654645D01*
X154052693Y-99654648D01*
X154242981Y-99692499D01*
X154242984Y-99692500D01*
X154437016Y-99692500D01*
X154581808Y-99663698D01*
X154651400Y-99669925D01*
X154706577Y-99712787D01*
X154729822Y-99778677D01*
X154730000Y-99785313D01*
X154730000Y-99839970D01*
X154730001Y-99839987D01*
X154740494Y-99942697D01*
X154795641Y-100109119D01*
X154795643Y-100109124D01*
X154887684Y-100258345D01*
X155011654Y-100382315D01*
X155160875Y-100474356D01*
X155160880Y-100474358D01*
X155327302Y-100529505D01*
X155327309Y-100529506D01*
X155430019Y-100539999D01*
X156824999Y-100539999D01*
X156825000Y-100539998D01*
X156825000Y-99562000D01*
X156844685Y-99494961D01*
X156897489Y-99449206D01*
X156949000Y-99438000D01*
X157146947Y-99438000D01*
X157146948Y-99438000D01*
X157176809Y-99432060D01*
X157246398Y-99438286D01*
X157301576Y-99481148D01*
X157324822Y-99547037D01*
X157325000Y-99553677D01*
X157325000Y-100539999D01*
X158275500Y-100539999D01*
X158342539Y-100559684D01*
X158388294Y-100612488D01*
X158399500Y-100663999D01*
X158399500Y-103736000D01*
X158379815Y-103803039D01*
X158327011Y-103848794D01*
X158275500Y-103860000D01*
X157325000Y-103860000D01*
X157325000Y-104846322D01*
X157305315Y-104913361D01*
X157252511Y-104959116D01*
X157183353Y-104969060D01*
X157176818Y-104967941D01*
X157146948Y-104962000D01*
X156949000Y-104962000D01*
X156881961Y-104942315D01*
X156836206Y-104889511D01*
X156825000Y-104838000D01*
X156825000Y-103860000D01*
X155430028Y-103860000D01*
X155430012Y-103860001D01*
X155327302Y-103870494D01*
X155160880Y-103925641D01*
X155160875Y-103925643D01*
X155011654Y-104017684D01*
X154887684Y-104141654D01*
X154795643Y-104290875D01*
X154795641Y-104290880D01*
X154740494Y-104457302D01*
X154740493Y-104457309D01*
X154730000Y-104560013D01*
X154730000Y-104614683D01*
X154710315Y-104681722D01*
X154657511Y-104727477D01*
X154588353Y-104737421D01*
X154581809Y-104736301D01*
X154437013Y-104707500D01*
X154242983Y-104707500D01*
X154052693Y-104745351D01*
X154052685Y-104745353D01*
X153873428Y-104819603D01*
X153873426Y-104819604D01*
X153841794Y-104840740D01*
X153918438Y-104917384D01*
X153951923Y-104978707D01*
X153946939Y-105048399D01*
X153905067Y-105104332D01*
X153899649Y-105108166D01*
X153874336Y-105125080D01*
X153874329Y-105125085D01*
X153772585Y-105226829D01*
X153772580Y-105226836D01*
X153755666Y-105252149D01*
X153702053Y-105296954D01*
X153632728Y-105305660D01*
X153569701Y-105275504D01*
X153564884Y-105270938D01*
X153488240Y-105194294D01*
X153467104Y-105225926D01*
X153467103Y-105225928D01*
X153392853Y-105405185D01*
X153392851Y-105405193D01*
X153355000Y-105595481D01*
X153355000Y-105789518D01*
X153392851Y-105979806D01*
X153392853Y-105979814D01*
X153467102Y-106159068D01*
X153467106Y-106159075D01*
X153488239Y-106190703D01*
X153564883Y-106114061D01*
X153626206Y-106080576D01*
X153695898Y-106085560D01*
X153751832Y-106127431D01*
X153755667Y-106132851D01*
X153772582Y-106158166D01*
X153772585Y-106158170D01*
X153874329Y-106259914D01*
X153899648Y-106276832D01*
X153944452Y-106330445D01*
X153953159Y-106399770D01*
X153923004Y-106462797D01*
X153918438Y-106467615D01*
X153841794Y-106544259D01*
X153873431Y-106565398D01*
X154052681Y-106639645D01*
X154052693Y-106639648D01*
X154242981Y-106677499D01*
X154242984Y-106677500D01*
X154437016Y-106677500D01*
X154581808Y-106648698D01*
X154651400Y-106654925D01*
X154706577Y-106697787D01*
X154729822Y-106763677D01*
X154730000Y-106770313D01*
X154730000Y-106824970D01*
X154730001Y-106824987D01*
X154740494Y-106927697D01*
X154795641Y-107094119D01*
X154795643Y-107094124D01*
X154887684Y-107243345D01*
X155011654Y-107367315D01*
X155160875Y-107459356D01*
X155160880Y-107459358D01*
X155327302Y-107514505D01*
X155327309Y-107514506D01*
X155430019Y-107524999D01*
X156824999Y-107524999D01*
X156825000Y-107524998D01*
X156825000Y-106547000D01*
X156844685Y-106479961D01*
X156897489Y-106434206D01*
X156949000Y-106423000D01*
X157146947Y-106423000D01*
X157146948Y-106423000D01*
X157176809Y-106417060D01*
X157246398Y-106423286D01*
X157301576Y-106466148D01*
X157324822Y-106532037D01*
X157325000Y-106538677D01*
X157325000Y-107524999D01*
X158275500Y-107524999D01*
X158342539Y-107544684D01*
X158388294Y-107597488D01*
X158399500Y-107648999D01*
X158399500Y-108475500D01*
X158379815Y-108542539D01*
X158327011Y-108588294D01*
X158275500Y-108599500D01*
X129774500Y-108599500D01*
X129707461Y-108579815D01*
X129661706Y-108527011D01*
X129650500Y-108475500D01*
X129650500Y-107598999D01*
X129670185Y-107531960D01*
X129722989Y-107486205D01*
X129774500Y-107474999D01*
X130800000Y-107474999D01*
X130800000Y-106488677D01*
X130819685Y-106421638D01*
X130872489Y-106375883D01*
X130941647Y-106365939D01*
X130948157Y-106367053D01*
X130978052Y-106373000D01*
X130978053Y-106373000D01*
X131176000Y-106373000D01*
X131243039Y-106392685D01*
X131288794Y-106445489D01*
X131300000Y-106497000D01*
X131300000Y-107474999D01*
X132694972Y-107474999D01*
X132694986Y-107474998D01*
X132797697Y-107464505D01*
X132964119Y-107409358D01*
X132964124Y-107409356D01*
X133113345Y-107317315D01*
X133237315Y-107193345D01*
X133329356Y-107044124D01*
X133329358Y-107044119D01*
X133384505Y-106877697D01*
X133384506Y-106877690D01*
X133394999Y-106774985D01*
X133394999Y-106720318D01*
X133414682Y-106653278D01*
X133467486Y-106607523D01*
X133536644Y-106597578D01*
X133543190Y-106598699D01*
X133687981Y-106627499D01*
X133687984Y-106627500D01*
X133882016Y-106627500D01*
X133882018Y-106627499D01*
X134072306Y-106589648D01*
X134072318Y-106589645D01*
X134251565Y-106515399D01*
X134283204Y-106494258D01*
X134206561Y-106417615D01*
X134173076Y-106356292D01*
X134178060Y-106286600D01*
X134219932Y-106230667D01*
X134225322Y-106226851D01*
X134250667Y-106209917D01*
X134352417Y-106108167D01*
X134369332Y-106082850D01*
X134422942Y-106038047D01*
X134492266Y-106029338D01*
X134555295Y-106059492D01*
X134560115Y-106064061D01*
X134636758Y-106140704D01*
X134657899Y-106109065D01*
X134732145Y-105929818D01*
X134732148Y-105929806D01*
X134769999Y-105739518D01*
X134770000Y-105739516D01*
X134770000Y-105545483D01*
X134769999Y-105545481D01*
X134732148Y-105355193D01*
X134732145Y-105355181D01*
X134657898Y-105175931D01*
X134636759Y-105144294D01*
X134560115Y-105220938D01*
X134498792Y-105254422D01*
X134429100Y-105249438D01*
X134373167Y-105207566D01*
X134369332Y-105202148D01*
X134352414Y-105176829D01*
X134250670Y-105075085D01*
X134250666Y-105075082D01*
X134225351Y-105058167D01*
X134180546Y-105004555D01*
X134171839Y-104935230D01*
X134201993Y-104872202D01*
X134206561Y-104867383D01*
X134283204Y-104790740D01*
X134251575Y-104769606D01*
X134251568Y-104769602D01*
X134072314Y-104695353D01*
X134072306Y-104695351D01*
X133882017Y-104657500D01*
X133687981Y-104657500D01*
X133543190Y-104686301D01*
X133473599Y-104680074D01*
X133418421Y-104637211D01*
X133395177Y-104571321D01*
X133394999Y-104564684D01*
X133394999Y-104510028D01*
X133394998Y-104510013D01*
X133384505Y-104407302D01*
X133329358Y-104240880D01*
X133329356Y-104240875D01*
X133237315Y-104091654D01*
X133113345Y-103967684D01*
X132964124Y-103875643D01*
X132964119Y-103875641D01*
X132797697Y-103820494D01*
X132797690Y-103820493D01*
X132694986Y-103810000D01*
X131300000Y-103810000D01*
X131300000Y-104788000D01*
X131280315Y-104855039D01*
X131227511Y-104900794D01*
X131176000Y-104912000D01*
X130978052Y-104912000D01*
X130948189Y-104917939D01*
X130878599Y-104911712D01*
X130823422Y-104868848D01*
X130800178Y-104802958D01*
X130800000Y-104796322D01*
X130800000Y-103810000D01*
X129774500Y-103810000D01*
X129707461Y-103790315D01*
X129661706Y-103737511D01*
X129650500Y-103686000D01*
X129650500Y-100613999D01*
X129670185Y-100546960D01*
X129722989Y-100501205D01*
X129774500Y-100489999D01*
X130800000Y-100489999D01*
X130800000Y-99503677D01*
X130819685Y-99436638D01*
X130872489Y-99390883D01*
X130941647Y-99380939D01*
X130948157Y-99382053D01*
X130978052Y-99388000D01*
X130978053Y-99388000D01*
X131176000Y-99388000D01*
X131243039Y-99407685D01*
X131288794Y-99460489D01*
X131300000Y-99512000D01*
X131300000Y-100489999D01*
X132694972Y-100489999D01*
X132694986Y-100489998D01*
X132797697Y-100479505D01*
X132964119Y-100424358D01*
X132964124Y-100424356D01*
X133113345Y-100332315D01*
X133237315Y-100208345D01*
X133329356Y-100059124D01*
X133329358Y-100059119D01*
X133384505Y-99892697D01*
X133384506Y-99892690D01*
X133394999Y-99789985D01*
X133394999Y-99735318D01*
X133414682Y-99668278D01*
X133467486Y-99622523D01*
X133536644Y-99612578D01*
X133543190Y-99613699D01*
X133687981Y-99642499D01*
X133687984Y-99642500D01*
X133882016Y-99642500D01*
X133882018Y-99642499D01*
X134072306Y-99604648D01*
X134072318Y-99604645D01*
X134251565Y-99530399D01*
X134283204Y-99509258D01*
X134206561Y-99432615D01*
X134173076Y-99371292D01*
X134178060Y-99301600D01*
X134219932Y-99245667D01*
X134225322Y-99241851D01*
X134250667Y-99224917D01*
X134352417Y-99123167D01*
X134369332Y-99097850D01*
X134422942Y-99053047D01*
X134492266Y-99044338D01*
X134555295Y-99074492D01*
X134560115Y-99079061D01*
X134636758Y-99155704D01*
X134657899Y-99124065D01*
X134732145Y-98944818D01*
X134732148Y-98944806D01*
X134769999Y-98754518D01*
X134770000Y-98754516D01*
X134770000Y-98560483D01*
X134769999Y-98560481D01*
X134732148Y-98370193D01*
X134732145Y-98370181D01*
X134657898Y-98190931D01*
X134636759Y-98159294D01*
X134560115Y-98235938D01*
X134498792Y-98269422D01*
X134429100Y-98264438D01*
X134373167Y-98222566D01*
X134369332Y-98217148D01*
X134352414Y-98191829D01*
X134250670Y-98090085D01*
X134250666Y-98090082D01*
X134225351Y-98073167D01*
X134180546Y-98019555D01*
X134171839Y-97950230D01*
X134201993Y-97887202D01*
X134206561Y-97882383D01*
X134283204Y-97805740D01*
X134251575Y-97784606D01*
X134251568Y-97784602D01*
X134072314Y-97710353D01*
X134072306Y-97710351D01*
X133882017Y-97672500D01*
X133687981Y-97672500D01*
X133543190Y-97701301D01*
X133473599Y-97695074D01*
X133418421Y-97652211D01*
X133395177Y-97586321D01*
X133394999Y-97579684D01*
X133394999Y-97525028D01*
X133394998Y-97525013D01*
X133384505Y-97422302D01*
X133329358Y-97255880D01*
X133329356Y-97255875D01*
X133237315Y-97106654D01*
X133113345Y-96982684D01*
X132964124Y-96890643D01*
X132964119Y-96890641D01*
X132797697Y-96835494D01*
X132797690Y-96835493D01*
X132694986Y-96825000D01*
X131300000Y-96825000D01*
X131300000Y-97803000D01*
X131280315Y-97870039D01*
X131227511Y-97915794D01*
X131176000Y-97927000D01*
X130978052Y-97927000D01*
X130948189Y-97932939D01*
X130878599Y-97926712D01*
X130823422Y-97883848D01*
X130800178Y-97817958D01*
X130800000Y-97811322D01*
X130800000Y-96825000D01*
X129774500Y-96825000D01*
X129707461Y-96805315D01*
X129661706Y-96752511D01*
X129650500Y-96701000D01*
X129650500Y-87232135D01*
X137449500Y-87232135D01*
X137449500Y-90327870D01*
X137449501Y-90327876D01*
X137455908Y-90387483D01*
X137506202Y-90522328D01*
X137506206Y-90522335D01*
X137592452Y-90637544D01*
X137592455Y-90637547D01*
X137707664Y-90723793D01*
X137707671Y-90723797D01*
X137842517Y-90774091D01*
X137842516Y-90774091D01*
X137849444Y-90774835D01*
X137902127Y-90780500D01*
X140997872Y-90780499D01*
X141057483Y-90774091D01*
X141192331Y-90723796D01*
X141307546Y-90637546D01*
X141393796Y-90522331D01*
X141444091Y-90387483D01*
X141450500Y-90327873D01*
X141450499Y-87232128D01*
X141444091Y-87172517D01*
X141393796Y-87037669D01*
X141393795Y-87037668D01*
X141393793Y-87037664D01*
X141307547Y-86922455D01*
X141307544Y-86922452D01*
X141192335Y-86836206D01*
X141192328Y-86836202D01*
X141057482Y-86785908D01*
X141057483Y-86785908D01*
X140997883Y-86779501D01*
X140997881Y-86779500D01*
X140997873Y-86779500D01*
X140997865Y-86779500D01*
X140651238Y-86779500D01*
X140584199Y-86759815D01*
X140538444Y-86707011D01*
X140528500Y-86637853D01*
X140557525Y-86574297D01*
X140575751Y-86557125D01*
X140676365Y-86479919D01*
X140676365Y-86479917D01*
X139868900Y-85672453D01*
X140007780Y-85579657D01*
X140129657Y-85457780D01*
X140222452Y-85318900D01*
X141029917Y-86126365D01*
X141029919Y-86126365D01*
X141116499Y-86013534D01*
X141116511Y-86013516D01*
X141247590Y-85786482D01*
X141247595Y-85786471D01*
X141347924Y-85544255D01*
X141415777Y-85291020D01*
X141415779Y-85291009D01*
X141449999Y-85031094D01*
X141450000Y-85031080D01*
X141450000Y-84768919D01*
X141449999Y-84768905D01*
X141415779Y-84508990D01*
X141415777Y-84508979D01*
X141347924Y-84255744D01*
X141247595Y-84013528D01*
X141247590Y-84013517D01*
X141116511Y-83786483D01*
X141116505Y-83786475D01*
X141029918Y-83673633D01*
X141029917Y-83673633D01*
X140222452Y-84481098D01*
X140129657Y-84342220D01*
X140007780Y-84220343D01*
X139868899Y-84127545D01*
X140676365Y-83320080D01*
X140563524Y-83233494D01*
X140563516Y-83233488D01*
X140336482Y-83102409D01*
X140336471Y-83102404D01*
X140094255Y-83002075D01*
X139841020Y-82934222D01*
X139841009Y-82934220D01*
X139581094Y-82900000D01*
X139318905Y-82900000D01*
X139058990Y-82934220D01*
X139058979Y-82934222D01*
X138805744Y-83002075D01*
X138563528Y-83102404D01*
X138563517Y-83102409D01*
X138336471Y-83233496D01*
X138223633Y-83320079D01*
X138223633Y-83320080D01*
X139031099Y-84127546D01*
X138892220Y-84220343D01*
X138770343Y-84342220D01*
X138677546Y-84481099D01*
X137870080Y-83673633D01*
X137870079Y-83673633D01*
X137783496Y-83786471D01*
X137652409Y-84013517D01*
X137652404Y-84013528D01*
X137552075Y-84255744D01*
X137484222Y-84508979D01*
X137484220Y-84508990D01*
X137450000Y-84768905D01*
X137450000Y-85031094D01*
X137484220Y-85291009D01*
X137484222Y-85291020D01*
X137552075Y-85544255D01*
X137652404Y-85786471D01*
X137652409Y-85786482D01*
X137783488Y-86013516D01*
X137783494Y-86013524D01*
X137870080Y-86126365D01*
X138677546Y-85318899D01*
X138770343Y-85457780D01*
X138892220Y-85579657D01*
X139031099Y-85672452D01*
X138223633Y-86479917D01*
X138223633Y-86479918D01*
X138324249Y-86557124D01*
X138365451Y-86613552D01*
X138369606Y-86683298D01*
X138335393Y-86744219D01*
X138273676Y-86776971D01*
X138248762Y-86779500D01*
X137902130Y-86779500D01*
X137902123Y-86779501D01*
X137842516Y-86785908D01*
X137707671Y-86836202D01*
X137707664Y-86836206D01*
X137592455Y-86922452D01*
X137592452Y-86922455D01*
X137506206Y-87037664D01*
X137506202Y-87037671D01*
X137455908Y-87172517D01*
X137449501Y-87232116D01*
X137449501Y-87232123D01*
X137449500Y-87232135D01*
X129650500Y-87232135D01*
X129650500Y-82024500D01*
X129670185Y-81957461D01*
X129722989Y-81911706D01*
X129774500Y-81900500D01*
X158275500Y-81900500D01*
X158342539Y-81920185D01*
G37*
%TD.AperFunction*%
%TD*%
M02*
